<?xml version="1.0"?>
<svg xmlns="http://www.w3.org/2000/svg" xmlns:xlink="http://www.w3.org/1999/xlink" xmlns:svgjs="http://svgjs.com/svgjs" version="1.1" x="0" y="0" viewBox="0 0 480 480" style="enable-background:new 0 0 512 512" xml:space="preserve"><g><g xmlns="http://www.w3.org/2000/svg"><path id="XMLID_1644_" d="m382.5 60c-16.568 0-30 13.432-30 30v90c0-16.568-13.432-30-30-30s-30 13.432-30 30v-30c0-16.568-13.432-30-30-30s-30 13.432-30 30v-120c0-16.568-13.432-30-30-30s-30 13.432-30 30v225l-12.502-.003-27.875-33.449c-17.28-20.737-49.65-19.008-64.623 3.452 13.381 25.661 35.749 56.302 48.087 104.75 4.448 17.465 13.494 33.094 25.773 45.522 33.503 33.906 30.901 73.58 31.141 74.728v30h180c0-18.572 0-11.43 0-30 0-28.066 11.414-54.765 31.141-74.728 17.841-18.06 28.858-42.878 28.858-70.272 0-20.221 0-185.236 0-215 0-16.568-13.432-30-30-30z" fill="#ffffff" data-original="#000000" style=""/></g></g></svg>
