<?xml version="1.0" standalone="no"?>
<!DOCTYPE svg PUBLIC "-//W3C//DTD SVG 20010904//EN"
 "http://www.w3.org/TR/2001/REC-SVG-20010904/DTD/svg10.dtd">
<svg version="1.0" xmlns="http://www.w3.org/2000/svg"
 viewBox="0 0 860.000000 821.000000"
 preserveAspectRatio="xMidYMid meet">

<g transform="translate(0.000000,821.000000) scale(0.100000,-0.100000)"
fill="#000000" stroke="none">
<path d="M4118 7676 c-28 -21 -28 -17 52 -571 22 -154 45 -329 50 -389 5 -60
10 -110 12 -111 2 -2 32 -7 68 -11 56 -6 63 -5 53 7 -8 10 -9 32 -4 74 9 65
-6 203 -54 485 -14 85 -31 184 -36 220 -29 205 -45 273 -68 291 -27 22 -49 24
-73 5z"/>
<path d="M7110 6740 c-25 -5 -55 -6 -67 -3 -40 9 -43 -7 -8 -39 53 -46 47 -60
-23 -52 -44 5 -66 2 -89 -9 -17 -9 -60 -19 -97 -23 -92 -9 -96 -26 -4 -20 40
3 142 8 226 11 159 6 194 11 171 26 -10 6 -8 17 9 52 12 24 22 49 22 56 0 12
-69 13 -140 1z"/>
<path d="M4003 6408 c-12 -16 -2 -312 11 -325 10 -10 7 -98 -4 -109 -7 -7 -4
-25 10 -56 15 -34 31 -52 63 -68 56 -30 131 -50 188 -50 26 0 71 -5 100 -11
30 -6 164 -12 299 -14 193 -2 255 0 294 12 28 8 67 16 87 17 21 1 44 8 52 14
7 7 18 8 23 4 4 -4 2 1 -5 11 -8 9 -11 20 -7 24 3 3 6 0 6 -7 0 -8 13 1 28 18
16 18 34 32 41 32 9 0 9 5 1 21 -11 19 -10 20 9 9 14 -7 21 -7 21 0 0 5 -3 10
-8 10 -4 0 -13 14 -21 31 -13 29 -12 33 10 53 13 12 33 27 43 33 15 8 19 23
21 69 0 33 -1 51 -3 42 -6 -29 -22 -20 -22 12 0 17 5 30 13 30 7 0 13 14 14
33 1 30 -1 32 -34 35 -19 1 -72 11 -117 22 -44 10 -182 28 -306 40 -315 29
-501 49 -600 66 -106 17 -194 18 -207 2z"/>
<path d="M3930 5821 c0 -9 109 -61 128 -61 6 0 14 -5 17 -11 4 -6 0 -9 -11 -7
-17 3 -19 -4 -17 -67 1 -39 7 -83 12 -98 6 -16 11 -41 11 -56 0 -15 4 -31 8
-36 18 -21 35 -121 24 -142 -6 -10 -10 -33 -10 -49 1 -16 -2 -39 -6 -50 -4
-14 -1 -27 9 -37 8 -9 15 -20 15 -26 0 -53 555 -135 758 -112 43 5 55 11 65
30 14 29 37 39 37 17 0 -22 13 -20 35 4 18 19 17 20 -3 20 -16 0 -22 6 -22 21
0 14 -5 19 -14 16 -10 -4 -12 2 -10 23 3 21 0 28 -10 24 -7 -3 -16 2 -19 10
-4 9 -12 16 -19 16 -7 0 -19 10 -27 23 -10 17 -11 19 0 10 7 -7 21 -13 31 -13
10 0 18 -6 18 -12 0 -9 4 -8 10 2 15 23 12 33 -9 27 -17 -4 -18 -1 -11 18 6
16 4 25 -11 36 -18 13 -18 14 -2 20 10 3 21 2 24 -3 9 -14 62 10 56 26 -3 8 1
13 11 12 9 0 16 4 15 10 -1 7 6 10 17 7 11 -3 20 0 20 6 0 6 11 11 24 11 13 0
29 6 35 14 7 8 28 17 49 21 20 4 45 16 57 28 11 12 29 22 40 22 12 0 19 6 17
14 -9 42 38 63 178 78 56 6 65 13 19 14 -19 1 -45 5 -59 9 -16 5 16 9 90 10
352 4 991 29 1170 45 337 30 485 49 658 82 134 26 87 25 -89 -1 -389 -58 -900
-86 -1574 -86 -264 0 -496 2 -515 4 -19 3 -100 7 -180 11 -388 17 -860 75
-994 121 -46 16 -46 16 -46 5z m1393 -188 c-7 -2 -21 -2 -30 0 -10 3 -4 5 12
5 17 0 24 -2 18 -5z"/>
<path d="M7428 5793 c7 -3 16 -2 19 1 4 3 -2 6 -13 5 -11 0 -14 -3 -6 -6z"/>
<path d="M4430 4502 c40 -27 70 -56 70 -66 0 -6 -5 -5 -12 2 -7 7 -16 12 -20
12 -13 0 -9 -28 5 -33 9 -4 9 -8 -2 -15 -12 -9 -12 -13 2 -26 16 -17 13 -43
-7 -59 -7 -5 -3 -6 7 -3 13 4 20 0 24 -14 5 -19 20 -25 52 -21 7 2 10 -2 7 -7
-5 -9 32 -18 114 -28 14 -2 54 -10 89 -18 56 -12 66 -12 79 1 10 10 18 11 25
4 18 -18 29 -12 21 11 -6 21 -6 21 10 5 25 -24 37 -21 25 7 -9 18 -18 23 -46
22 -22 -1 -37 4 -39 12 -1 7 0 8 3 2 6 -13 33 -13 33 0 0 6 6 10 14 10 7 0 21
11 30 25 9 14 21 25 27 25 6 0 3 -7 -5 -16 -20 -19 -21 -35 -2 -28 15 6 28 39
18 48 -3 3 -14 6 -24 6 -13 0 -17 6 -15 22 5 29 25 35 41 13 9 -12 18 -15 27
-9 16 10 19 10 79 13 40 2 42 3 21 12 -14 5 -30 8 -36 5 -7 -2 -43 2 -81 9
-38 7 -123 21 -189 30 -66 9 -169 28 -229 41 -132 29 -150 30 -116 6z"/>
<path d="M4287 4303 c-4 -3 -7 -21 -7 -39 0 -37 16 -51 115 -101 80 -41 108
-50 240 -73 394 -68 1253 -82 1775 -29 212 21 392 51 475 79 30 10 30 10 -5 4
-402 -63 -794 -78 -1287 -48 -81 5 -553 49 -633 59 -224 29 -640 121 -648 144
-4 12 -15 14 -25 4z"/>
<path d="M5368 3354 c-13 -12 -9 -26 6 -21 7 3 31 2 52 -3 36 -8 67 1 52 15
-9 10 -103 17 -110 9z"/>
<path d="M5651 3341 c-10 -6 -10 -10 -1 -16 13 -8 24 -1 19 14 -3 6 -10 7 -18
2z"/>
<path d="M5320 3297 c0 -25 41 -47 85 -46 l40 1 -46 16 c-26 9 -54 23 -63 31
-14 11 -16 11 -16 -2z"/>
<path d="M5312 3198 c2 -7 20 -21 39 -31 48 -25 139 -9 139 24 0 5 -10 3 -22
-5 -18 -12 -32 -13 -68 -5 -25 6 -49 14 -54 20 -14 13 -38 11 -34 -3z"/>
<path d="M5650 3160 c0 -5 4 -10 9 -10 6 0 13 5 16 10 3 6 -1 10 -9 10 -9 0
-16 -4 -16 -10z"/>
<path d="M4728 2633 c7 -3 16 -2 19 1 4 3 -2 6 -13 5 -11 0 -14 -3 -6 -6z"/>
<path d="M4810 2615 c-11 -30 -20 -33 -13 -5 4 14 0 20 -11 20 -9 0 -16 -4
-16 -10 0 -5 -3 -9 -7 -9 -15 3 -73 -23 -73 -32 0 -5 9 -9 20 -9 18 0 19 -3
10 -20 -8 -14 -8 -20 0 -20 6 0 8 -5 4 -11 -4 -8 -9 -7 -15 2 -4 7 -11 10 -16
6 -4 -4 -2 -17 5 -27 10 -17 10 -20 -4 -20 -14 0 -15 -8 -11 -50 3 -31 2 -50
-5 -50 -6 0 -8 -11 -6 -25 3 -16 1 -25 -7 -25 -16 0 -12 -305 6 -510 6 -74 12
-152 13 -172 0 -21 4 -38 9 -38 4 0 7 -10 7 -23 0 -23 33 -60 80 -89 102 -62
485 -130 810 -143 236 -10 611 20 755 59 67 19 40 19 -59 1 -237 -43 -653 -47
-888 -9 -21 3 -38 11 -38 18 0 21 33 44 73 51 20 4 37 9 37 12 0 8 -62 95 -82
115 -10 10 -16 23 -13 27 3 5 -5 7 -17 4 -21 -4 -22 -3 -5 10 20 17 22 27 5
27 -7 0 -24 12 -37 25 -18 20 -20 25 -7 25 9 0 16 5 16 10 0 6 -7 10 -15 10
-8 0 -15 7 -15 16 0 10 -6 14 -14 11 -10 -4 -17 4 -21 24 -4 16 -11 29 -16 29
-5 0 -9 9 -9 19 0 11 -9 23 -21 26 -22 7 -43 50 -35 71 3 8 -2 20 -10 29 -9 8
-11 15 -4 15 7 0 6 5 -2 14 -9 10 -15 11 -20 2 -6 -8 -8 -7 -8 2 0 7 -7 12
-16 10 -10 -2 -19 3 -21 10 -3 6 0 12 6 12 6 0 11 5 11 10 0 6 -11 8 -25 4
-30 -7 -34 11 -5 26 10 6 17 16 14 24 -3 7 2 21 12 30 15 16 15 17 -9 11 -20
-5 -27 -2 -32 15 -4 12 -4 24 -1 27 3 4 6 -1 6 -10 0 -9 5 -17 10 -17 16 0 11
27 -6 34 -8 3 -24 1 -35 -4 -16 -9 -19 -7 -19 10 0 11 -7 23 -15 26 -21 8 -19
26 5 47 25 21 40 22 40 2 0 -14 -12 -19 -32 -16 -9 1 -11 -23 -2 -31 12 -13
42 6 47 30 7 37 -1 50 -28 47 -17 -2 -22 1 -18 11 3 8 10 14 15 14 16 0 58 48
46 52 -6 2 -11 29 -12 60 -1 46 1 55 14 50 8 -3 18 -10 22 -16 5 -7 8 -5 8 5
0 9 9 15 25 15 14 0 25 -1 25 -3 0 -1 -11 -13 -25 -27 -24 -24 -33 -46 -19
-46 19 0 55 56 58 89 4 41 -7 71 -21 57 -4 -5 -2 -11 5 -13 17 -6 15 -23 -3
-23 -8 0 -14 3 -14 8 3 20 -2 31 -15 26 -8 -3 -17 -1 -20 5 -4 6 -13 8 -21 4
-9 -3 -22 0 -30 7 -12 10 -18 10 -30 0 -12 -10 -15 -10 -15 4 0 9 -4 16 -10
16 -5 0 -10 -5 -10 -12 0 -8 -5 -6 -12 3 -29 34 -45 41 -66 28 -16 -10 -24 -9
-47 9 -36 29 -53 28 -65 -3z m150 -35 c0 -5 -4 -10 -10 -10 -5 0 -10 5 -10 10
0 6 5 10 10 10 6 0 10 -4 10 -10z m-10 -30 c0 -5 -4 -10 -10 -10 -5 0 -10 5
-10 10 0 6 5 10 10 10 6 0 10 -4 10 -10z m110 -75 c0 -8 -4 -15 -10 -15 -5 0
-10 7 -10 15 0 8 5 15 10 15 6 0 10 -7 10 -15z m-35 -45 c-3 -5 -10 -10 -16
-10 -5 0 -9 5 -9 10 0 6 7 10 16 10 8 0 12 -4 9 -10z m34 -46 c6 4 11 0 11 -8
0 -9 -7 -16 -15 -16 -8 0 -15 2 -15 4 0 2 -3 13 -6 23 -4 14 -4 15 4 4 5 -7
15 -10 21 -7z m-29 -31 c0 -10 -4 -14 -8 -8 -4 6 -11 13 -16 18 -5 4 -2 7 7 7
10 0 17 -8 17 -17z m70 -353 c0 -5 -4 -10 -10 -10 -5 0 -10 5 -10 10 0 6 5 10
10 10 6 0 10 -4 10 -10z"/>
<path d="M4890 2626 c0 -9 7 -16 16 -16 9 0 14 5 12 12 -6 18 -28 21 -28 4z"/>
<path d="M5226 2517 c3 -10 9 -15 12 -12 3 3 0 11 -7 18 -10 9 -11 8 -5 -6z"/>
<path d="M5192 1918 c2 -6 10 -14 16 -16 7 -2 10 2 6 12 -7 18 -28 22 -22 4z"/>
<path d="M6458 1443 c7 -3 16 -2 19 1 4 3 -2 6 -13 5 -11 0 -14 -3 -6 -6z"/>
<path d="M6408 1433 c6 -2 18 -2 25 0 6 3 1 5 -13 5 -14 0 -19 -2 -12 -5z"/>
</g>
</svg>
